# xmcd
#
# Track frame offsets: 
#        150
#        30590
#        44120
#        77460
#        92715
#        113382
#        134520
#        156462
#        184425
#        247177
#        300295
#
# Disc length: 4451 seconds
#
# Revision: 2
# Processed by: cddbd v1.5.1PL0 Copyright (c) Steve Scherf et al.
# Submitted via: ExactAudioCopy v0.95a5
#
DISCID=8e11610b
DTITLE=The Marshall Tucker Band - Where We All Belong
DYEAR=1974
DGENRE=Country
TTITLE0=This Ol' Cowboy
TTITLE1=Low Down Ways
TTITLE2=In My Own Way
TTITLE3=How Can I Slow Down
TTITLE4=Where a Country Boy Belongs
TTITLE5=Now She's Gone
TTITLE6=Try One More Time
TTITLE7=Ramblin'
TTITLE8=24 Hours At a Time
TTITLE9=Everyday (I Have the Blues)
TTITLE10=Take the Highway
EXTD=This Classic Double Lp Includes The Band's First Release Of "This
EXTD=Ol' Cowboy" And "In My Own Way". The Live Side Features Incredib
EXTD=le Performances Of "24 Hours At A Time" And "Take The Highway". \n
EXTD=\nWhere We All Belong Credits:\nToy Caldwell: Electric And Acoust
EXTD=ic Guitars, Steel Guitar And Lead Vocal On "This Ol' Cowboy". Tom
EXTD=my Caldwell: Electric And Acoustic Guitars, Banjo. Jerry Eubanks:
EXTD=Flute, Alto, Baritone And Tenor Saxophone, Background Vocals. Do
EXTD=ug Gray: Lead Vocals And Percussion. Paul Riddle: Drums. Guest Ar
EXTD=tists: Elvin Bishop: Slide Guitar On "Where A Country Boy Belongs
EXTD=" \nCharlie Daniels: Fiddle. Earl Ford: Trombone. Paul Hornsby: 
EXTD=Piano, Organ And Clavinet. Jerry Joseph: Conga. Steve Madaio: Tru
EXTD=mpet. Sam Mcphearson: Harp. Andy Stein: Fiddle. Johnny Vernazza: 
EXTD=Slide Guitar On "Where A Country Boy Belongs." \n\n(C)2004 Ajk Mu
EXTD=sic A 677-2/ Capricorn Records USA\nupc 0227750677240\n(P)1974 Pr
EXTD=oduced By Paul Hornsby for Capricorn Records\n
EXTT0=
EXTT1=
EXTT2=
EXTT3=
EXTT4=
EXTT5=
EXTT6=
EXTT7=
EXTT8=
EXTT9=
EXTT10=
PLAYORDER=
